Coordinates
version=1
nRows=8
nColumns=42
inDegrees=yes

Units are S.I. units (second, meters, Newtons, ...)
If the header above contains a line with 'inDegrees', this indicates whether rotational values are in degrees (yes) or radians (no).

endheader
time	pelvis_tilt	pelvis_list	pelvis_rotation	pelvis_tx	pelvis_ty	pelvis_tz	hip_flexion_r	hip_adduction_r	hip_rotation_r	knee_angle_r	knee_adduction_r	knee_angle_r_beta	ankle_angle_r	subtalar_angle_r	mtp_angle_r	hip_flexion_l	hip_adduction_l	hip_rotation_l	knee_angle_l	knee_adduction_l	knee_angle_l_beta	ankle_angle_l	subtalar_angle_l	mtp_angle_l	lumbar_extension	lumbar_bending	lumbar_rotation	arm_flex_r	arm_add_r	arm_rot_r	elbow_flex_r	pro_sup_r	wrist_flex_r	wrist_dev_r	arm_flex_l	arm_add_l	arm_rot_l	elbow_flex_l	pro_sup_l	wrist_flex_l	wrist_dev_l
      1.44000000	      2.21176692	      0.42053272	      9.07033804	     -1.01655655	      0.83048492	      0.21431445	     37.65590511	     -1.31950890	    -37.76320301	     34.42373839	    -22.07192770	      0.60080758	      6.78792901	     18.66281621	     -7.50711839	     -5.80548374	      3.38243570	    -19.48959314	     38.44675027	    -20.61262283	      0.67102238	     31.16832611	     28.27761140	     -7.50711839	    -21.57241952	      2.20829889	     -5.05156529	     -3.20762779	    -10.70547799	      5.03459297	     29.36674194	     90.00000001	      0.00000000	      0.00000000	     22.20299657	    -21.05151042	      9.53672261	     59.10132570	     90.00000001	      0.00000000	      0.00000000
      1.45000000	      2.10892236	     -0.09097685	      8.86191317	     -1.00278652	      0.83131571	      0.21635731	     37.33695644	     -0.17039641	    -36.68858200	     35.42723798	    -22.09641830	      0.61832195	      6.76421539	     15.41482382	     -7.50671151	     -5.09889917	      2.81070964	    -18.11711969	     41.33263594	    -20.59859201	      0.72139059	     27.84498224	     24.52806906	     -7.50671151	    -21.38423970	      2.80399328	     -4.87647753	     -2.59530276	    -10.79723481	      4.91589717	     29.12048608	     90.00000001	      0.00000000	      0.00000000	     21.04286444	    -20.70463623	      8.67548975	     58.75008455	     90.00000001	      0.00000000	      0.00000000
      1.46000000	      2.53906340	     -0.48808246	      8.34410975	     -0.98830885	      0.83321999	      0.21895826	     36.32559846	      0.80050519	    -36.43744730	     36.34787631	    -22.23526554	      0.63439012	      7.53010317	     15.28206668	     -7.50666124	     -4.96198502	      1.99345701	    -18.34211079	     43.82734596	    -20.86164806	      0.76493149	     25.24437837	     24.03071589	     -7.50666124	    -21.76262601	      3.19130644	     -4.27268887	     -2.07627745	    -10.95659291	      4.89291424	     29.12254762	     90.00000001	      0.00000000	      0.00000000	     20.15160268	    -20.49911920	      8.56525147	     58.27834911	     90.00000001	      0.00000000	      0.00000000
      1.47000000	      2.36481768	     -1.17104302	      7.88382456	     -0.97433604	      0.83452150	      0.22136916	     35.71884082	      2.21253248	    -36.05734957	     36.45973887	    -22.37235319	      0.63634249	      8.61805961	     14.41964228	     -7.50653806	     -3.62781184	      1.02136581	    -18.46447629	     47.04157545	    -21.28705518	      0.82103038	     21.17986655	     21.30032693	     -7.50653806	    -21.41350643	      3.90191774	     -3.78924665	     -1.46817441	    -11.22011181	      4.88356486	     29.07982774	     90.00000001	      0.00000000	      0.00000000	     18.89095831	    -20.09594075	      8.26393232	     57.50332866	     90.00000001	      0.00000000	      0.00000000
      1.48000000	      2.41164306	     -1.60832714	      7.25501691	     -0.96072666	      0.83645566	      0.22410500	     34.81347825	      3.25692502	    -35.72551390	     36.69934909	    -22.26991205	      0.64052447	      9.57998301	     14.06665780	     -7.50643168	     -2.44341899	      0.26283420	    -18.62073126	     50.35376664	    -21.49961878	      0.87883902	     18.04467307	     18.32680349	     -7.50643168	    -21.44103540	      4.25780420	     -3.11740611	     -0.78437012	    -11.43021028	      4.91127428	     29.10939130	     90.00000001	      0.00000000	      0.00000000	     17.90603262	    -19.76506118	      8.15500382	     56.67216761	     90.00000001	      0.00000000	      0.00000000
      1.49000000	      2.20848246	     -1.56518054	      6.71740078	     -0.94815022	      0.83856260	      0.22633524	     34.14039574	      3.58906891	    -35.47266252	     36.89023193	    -22.18558202	      0.64385601	     10.19641673	     13.75197354	     -7.50602258	     -0.88224298	      0.56206370	    -16.34765415	     54.24609105	    -20.25646776	      0.94677290	     14.78700706	      9.89658317	     -7.50602258	    -21.35614654	      4.07094594	     -2.69176143	      0.01086292	    -11.57426919	      5.02217574	     29.16780441	     90.00000001	      0.00000000	      0.00000000	     17.05203189	    -19.46293829	      8.17093741	     55.68198403	     90.00000001	      0.00000000	      0.00000000
      1.50000000	      2.15555293	     -1.75223647	      6.10294353	     -0.93520699	      0.84080077	      0.22887570	     33.15298883	      4.19346913	    -35.82281314	     36.61673347	    -22.30829830	      0.63908256	     11.32377472	     15.03466548	     -7.50560846	      0.77515274	      0.18099173	    -16.27581867	     57.71078571	    -20.11950274	      1.00724322	     12.28075756	      5.03575751	     -7.50560846	    -21.35256039	      4.10231235	     -2.03763996	      0.72760014	    -11.77944507	      5.03898608	     29.37046866	     90.00000001	      0.00000000	      0.00000000	     16.22524472	    -19.16199876	      8.44649744	     54.56709800	     90.00000001	      0.00000000	      0.00000000
      1.51000000	      2.21319553	     -2.06802854	      5.42242339	     -0.92218265	      0.84321393	      0.23160435	     31.90276754	      5.01825963	    -35.96533841	     36.16545002	    -22.23610288	      0.63120618	     12.51702677	     15.86981614	     -7.50553344	      2.45741748	     -0.61736397	    -17.68915652	     60.76142347	    -20.87765852	      1.06048690	     11.07327978	      2.76546011	     -7.50553344	    -21.44842527	      4.24512449	     -1.24010413	      1.46846759	    -12.03731118	      5.04934867	     29.62442856	     90.00000001	      0.00000000	      0.00000000	     15.41451871	    -18.82174171	      8.80495362	     53.37804496	     90.00000001	      0.00000000	      0.00000000
